<svg xmlns="http://www.w3.org/2000/svg"  viewBox="0 0 48 48" width="48px" height="48px"><path d="M 13.5 6 C 9.3754991 6 6 9.3754991 6 13.5 L 6 34.5 C 6 38.624501 9.3754991 42 13.5 42 L 34.5 42 C 38.624501 42 42 38.624501 42 34.5 L 42 13.5 C 42 9.3754991 38.624501 6 34.5 6 L 13.5 6 z M 13.5 9 L 34.5 9 C 37.003499 9 39 10.996501 39 13.5 L 39 34.5 C 39 37.003499 37.003499 39 34.5 39 L 13.5 39 C 10.996501 39 9 37.003499 9 34.5 L 9 13.5 C 9 13.187063 9.0303623 12.882075 9.0898438 12.587891 C 9.506214 10.528599 11.309438 9 13.5 9 z M 24 12.15625 C 23.871 12.15625 23.742766 12.19825 23.634766 12.28125 L 12.398438 20.923828 C 11.944437 21.273828 12.190672 22 12.763672 22 L 14 22 L 14 34.5 C 14 34.776 14.224 35 14.5 35 L 33.5 35 C 33.776 35 34 34.776 34 34.5 L 34 22 L 35.236328 22 C 35.809328 22 36.055563 21.273828 35.601562 20.923828 L 34 19.691406 L 34 15.5 C 34 15.224 33.776 15 33.5 15 L 31.5 15 C 31.224 15 31 15.224 31 15.5 L 31 17.384766 L 24.365234 12.28125 C 24.257234 12.19825 24.129 12.15625 24 12.15625 z M 24 15.785156 L 31 21.169922 L 31 32 L 17 32 L 17 21.169922 L 24 15.785156 z M 24 18.308594 L 19 22.154297 L 19 30 L 29 30 L 29 22.154297 L 24 18.308594 z M 24 22.09375 L 26 23.632812 L 26 27 L 22 27 L 22 23.630859 L 24 22.09375 z"/></svg>