<svg xmlns="http://www.w3.org/2000/svg" xmlns:xlink="http://www.w3.org/1999/xlink" viewBox="0,0,256,256" width="48px" height="48px" fill-rule="nonzero"><g fill="#5c7cfa" fill-rule="nonzero" stroke="none" stroke-width="1" stroke-linecap="butt" stroke-linejoin="miter" stroke-miterlimit="10" stroke-dasharray="" stroke-dashoffset="0" font-family="none" font-weight="none" font-size="none" text-anchor="none" style="mix-blend-mode: normal"><g transform="scale(5.33333,5.33333)"><path d="M13.5,6c-4.1245,0 -7.5,3.3755 -7.5,7.5v21c0,4.1245 3.3755,7.5 7.5,7.5h21c4.1245,0 7.5,-3.3755 7.5,-7.5v-21c0,-4.1245 -3.3755,-7.5 -7.5,-7.5zM13.5,9h21c2.5035,0 4.5,1.9965 4.5,4.5v21c0,2.5035 -1.9965,4.5 -4.5,4.5h-21c-2.5035,0 -4.5,-1.9965 -4.5,-4.5v-21c0,-0.31294 0.03036,-0.61792 0.08984,-0.91211c0.41637,-2.05929 2.21959,-3.58789 4.41016,-3.58789zM24,12.15625c-0.129,0 -0.25723,0.042 -0.36523,0.125l-11.23633,8.64258c-0.454,0.35 -0.20777,1.07617 0.36523,1.07617h1.23633v12.5c0,0.276 0.224,0.5 0.5,0.5h19c0.276,0 0.5,-0.224 0.5,-0.5v-12.5h1.23633c0.573,0 0.81923,-0.72617 0.36523,-1.07617l-1.60156,-1.23242v-4.19141c0,-0.276 -0.224,-0.5 -0.5,-0.5h-2c-0.276,0 -0.5,0.224 -0.5,0.5v1.88477l-6.63477,-5.10352c-0.108,-0.083 -0.23623,-0.125 -0.36523,-0.125zM24,15.78516l7,5.38477v10.83008h-14v-10.83008zM24,18.30859l-5,3.8457v7.8457h10v-7.8457zM24,22.09375l2,1.53906v3.36719h-4v-3.36914z"></path></g></g></svg>